M48
; DRILL file {KiCad 9.0.7} date 2026-03-20T17:26:50+0530
; FORMAT={-:-/ absolute / metric / decimal}
; #@! TF.CreationDate,2026-03-20T17:26:50+05:30
; #@! TF.GenerationSoftware,Kicad,Pcbnew,9.0.7
; #@! TF.FileFunction,Plated,1,2,PTH
FMAT,2
METRIC
; #@! TA.AperFunction,Plated,PTH,ComponentDrill
T1C0.600
; #@! TA.AperFunction,Plated,PTH,ComponentDrill
T2C0.800
; #@! TA.AperFunction,Plated,PTH,ComponentDrill
T3C0.950
; #@! TA.AperFunction,Plated,PTH,ComponentDrill
T4C1.000
%
G90
G05
T1
X65.0Y-135.0
X66.5Y-63.5
X67.0Y-135.0
X68.5Y-63.5
T2
X63.5Y-93.0
X64.5Y-128.5
X66.0Y-71.5
X66.0Y-93.0
X67.0Y-128.5
X68.5Y-71.5
T3
X84.0Y-151.8
X86.5Y-151.8
X89.0Y-151.8
X151.5Y-145.7
X151.5Y-153.5
X154.0Y-145.7
X154.0Y-153.5
X156.5Y-145.7
X156.5Y-153.5
T4
X63.64Y-109.5
X66.18Y-109.5
X68.72Y-109.5
X71.26Y-109.5
X73.8Y-109.5
X74.0Y-149.5
X74.0Y-152.0
X76.34Y-109.5
X78.26Y-88.0
X78.88Y-109.5
X79.3Y-63.5
X80.8Y-88.0
X81.42Y-109.5
X81.84Y-63.5
X83.34Y-88.0
X83.96Y-109.5
X84.38Y-63.5
X85.88Y-88.0
X86.5Y-109.5
X86.92Y-63.5
X88.42Y-88.0
X89.46Y-63.5
X90.96Y-88.0
X92.0Y-63.5
X93.5Y-88.0
X97.38Y-133.0
X97.38Y-151.0
X99.92Y-133.0
X99.92Y-151.0
X102.46Y-64.78
X102.46Y-67.32
X102.46Y-69.86
X102.46Y-72.4
X102.46Y-74.94
X102.46Y-77.48
X102.46Y-80.02
X102.46Y-82.56
X102.46Y-85.1
X102.46Y-87.64
X102.46Y-90.18
X102.46Y-92.72
X102.46Y-95.26
X102.46Y-97.8
X102.46Y-100.34
X102.46Y-102.88
X102.46Y-105.42
X102.46Y-107.96
X102.46Y-110.5
X102.46Y-113.04
X102.46Y-115.58
X102.46Y-118.12
X102.46Y-120.66
X102.46Y-123.2
X102.46Y-133.0
X102.46Y-151.0
X105.0Y-133.0
X105.0Y-151.0
X107.54Y-133.0
X107.54Y-151.0
X110.08Y-133.0
X110.08Y-151.0
X112.62Y-133.0
X112.62Y-151.0
X115.16Y-133.0
X115.16Y-151.0
X117.7Y-133.0
X117.7Y-151.0
X120.24Y-133.0
X120.24Y-151.0
X120.46Y-64.28
X120.46Y-66.82
X120.46Y-69.36
X120.46Y-71.9
X120.46Y-74.44
X120.46Y-76.98
X120.46Y-79.52
X120.46Y-82.06
X120.46Y-84.6
X120.46Y-87.14
X120.46Y-89.68
X120.46Y-92.22
X120.46Y-94.76
X120.46Y-97.3
X120.46Y-99.84
X120.46Y-102.38
X120.46Y-104.92
X120.46Y-107.46
X120.46Y-110.0
X120.46Y-112.54
X120.46Y-115.08
X120.46Y-117.62
X120.46Y-120.16
X120.46Y-122.7
X122.78Y-133.0
X122.78Y-151.0
X125.32Y-133.0
X125.32Y-151.0
X140.88Y-89.5
X143.42Y-89.5
X145.96Y-89.5
X148.5Y-89.5
M30
