%TF.GenerationSoftware,KiCad,Pcbnew,9.0.7*%
%TF.CreationDate,2026-03-22T21:24:22+05:30*%
%TF.ProjectId,satellite,73617465-6c6c-4697-9465-2e6b69636164,rev?*%
%TF.SameCoordinates,Original*%
%TF.FileFunction,Copper,L1,Top*%
%TF.FilePolarity,Positive*%
%FSLAX46Y46*%
G04 Gerber Fmt 4.6, Leading zero omitted, Abs format (unit mm)*
G04 Created by KiCad (PCBNEW 9.0.7) date 2026-03-22 21:24:22*
%MOMM*%
%LPD*%
G01*
G04 APERTURE LIST*
G04 Aperture macros list*
%AMRoundRect*
0 Rectangle with rounded corners*
0 $1 Rounding radius*
0 $2 $3 $4 $5 $6 $7 $8 $9 X,Y pos of 4 corners*
0 Add a 4 corners polygon primitive as box body*
4,1,4,$2,$3,$4,$5,$6,$7,$8,$9,$2,$3,0*
0 Add four circle primitives for the rounded corners*
1,1,$1+$1,$2,$3*
1,1,$1+$1,$4,$5*
1,1,$1+$1,$6,$7*
1,1,$1+$1,$8,$9*
0 Add four rect primitives between the rounded corners*
20,1,$1+$1,$2,$3,$4,$5,0*
20,1,$1+$1,$4,$5,$6,$7,0*
20,1,$1+$1,$6,$7,$8,$9,0*
20,1,$1+$1,$8,$9,$2,$3,0*%
G04 Aperture macros list end*
%TA.AperFunction,ComponentPad*%
%ADD10C,1.600000*%
%TD*%
%TA.AperFunction,ComponentPad*%
%ADD11RoundRect,0.250000X0.750000X-0.600000X0.750000X0.600000X-0.750000X0.600000X-0.750000X-0.600000X0*%
%TD*%
%TA.AperFunction,ComponentPad*%
%ADD12O,2.000000X1.700000*%
%TD*%
%TA.AperFunction,ComponentPad*%
%ADD13RoundRect,0.250000X-0.750000X0.600000X-0.750000X-0.600000X0.750000X-0.600000X0.750000X0.600000X0*%
%TD*%
%TA.AperFunction,ComponentPad*%
%ADD14R,1.700000X1.700000*%
%TD*%
%TA.AperFunction,ComponentPad*%
%ADD15C,1.700000*%
%TD*%
%TA.AperFunction,ComponentPad*%
%ADD16C,1.200000*%
%TD*%
%TA.AperFunction,ComponentPad*%
%ADD17R,1.800000X1.800000*%
%TD*%
%TA.AperFunction,ComponentPad*%
%ADD18C,1.800000*%
%TD*%
%TA.AperFunction,ComponentPad*%
%ADD19RoundRect,0.250000X0.725000X-0.600000X0.725000X0.600000X-0.725000X0.600000X-0.725000X-0.600000X0*%
%TD*%
%TA.AperFunction,ComponentPad*%
%ADD20O,1.950000X1.700000*%
%TD*%
%TA.AperFunction,ComponentPad*%
%ADD21R,1.000000X1.000000*%
%TD*%
%TA.AperFunction,ComponentPad*%
%ADD22C,1.000000*%
%TD*%
%TA.AperFunction,ViaPad*%
%ADD23C,0.600000*%
%TD*%
%TA.AperFunction,Conductor*%
%ADD24C,0.200000*%
%TD*%
G04 APERTURE END LIST*
D10*
%TO.P,100nF,2*%
%TO.N,/A0*%
X67300000Y-110300000D03*
%TO.P,100nF,1*%
%TO.N,/3.3V_A*%
X64800000Y-110300000D03*
%TD*%
D11*
%TO.P,Digital_P.S.,1,Pin_1*%
%TO.N,/VCC_Digital*%
X154400000Y-79400000D03*
D12*
%TO.P,Digital_P.S.,2,Pin_2*%
%TO.N,/GND_Digital*%
X154400000Y-76900000D03*
%TD*%
D10*
%TO.P,100nF,1*%
%TO.N,/A0*%
X95900000Y-153250000D03*
%TO.P,100nF,2*%
%TO.N,/3.3V_A*%
X95900000Y-150750000D03*
%TD*%
D13*
%TO.P,Analog_POWER_SUPPLY,1,Pin_1*%
%TO.N,/A0*%
X68800000Y-142900000D03*
D12*
%TO.P,Analog_POWER_SUPPLY,2,Pin_2*%
%TO.N,/3.3V_A*%
X68800000Y-145400000D03*
%TD*%
D14*
%TO.P,LIS3MDL,1,Pin_1*%
%TO.N,/3V3_LIS3MDL*%
X77900000Y-105400000D03*
D15*
%TO.P,LIS3MDL,2,Pin_2*%
%TO.N,/3.3V_A*%
X80440000Y-105400000D03*
%TO.P,LIS3MDL,3,Pin_3*%
%TO.N,/A0*%
X82980000Y-105400000D03*
%TO.P,LIS3MDL,4,Pin_4*%
%TO.N,/SC2*%
X85520000Y-105400000D03*
%TO.P,LIS3MDL,5,Pin_5*%
%TO.N,/SD2*%
X88060000Y-105400000D03*
%TO.P,LIS3MDL,6,Pin_6*%
%TO.N,/A0*%
X90600000Y-105400000D03*
%TO.P,LIS3MDL,7,Pin_7*%
%TO.N,/3.3V_A*%
X93140000Y-105400000D03*
%TD*%
D10*
%TO.P,R3,1*%
%TO.N,Net-(Digital1-A)*%
X142600000Y-92880000D03*
%TO.P,R3,2*%
%TO.N,/VCC_Digital*%
X142600000Y-82720000D03*
%TD*%
%TO.P,R6,1*%
%TO.N,/19*%
X136760000Y-117700000D03*
%TO.P,R6,2*%
%TO.N,/3.3V_A*%
X139300000Y-117700000D03*
%TD*%
%TO.P,R5,1*%
%TO.N,/23*%
X136500000Y-82840000D03*
%TO.P,R5,2*%
%TO.N,Net-(Pin23-A)*%
X136500000Y-93000000D03*
%TD*%
%TO.P,R4,1*%
%TO.N,/22*%
X130300000Y-82740000D03*
%TO.P,R4,2*%
%TO.N,Net-(Pin22-A)*%
X130300000Y-92900000D03*
%TD*%
D16*
%TO.P,10uF,1*%
%TO.N,/GND_BUCK*%
X136700000Y-75800000D03*
%TO.P,10uF,2*%
%TO.N,/5V_Buck*%
X136700000Y-77800000D03*
%TD*%
D17*
%TO.P,Analog,1,K*%
%TO.N,/A0*%
X85700000Y-132800000D03*
D18*
%TO.P,Analog,2,A*%
%TO.N,Net-(Analog1-A)*%
X85700000Y-135340000D03*
%TD*%
D10*
%TO.P,100nF_C6,1*%
%TO.N,/3.3V_A*%
X147925000Y-107750000D03*
%TO.P,100nF_C6,2*%
%TO.N,/A0*%
X147925000Y-105250000D03*
%TD*%
D16*
%TO.P,10uF,1*%
%TO.N,/A0*%
X77500000Y-134000000D03*
%TO.P,10uF,2*%
%TO.N,/3.3V_A*%
X75500000Y-134000000D03*
%TD*%
D10*
%TO.P,100nF,1*%
%TO.N,/A0*%
X69900000Y-134200000D03*
%TO.P,100nF,2*%
%TO.N,/3.3V_A*%
X67400000Y-134200000D03*
%TD*%
D14*
%TO.P,MPU6500,1,Pin_1*%
%TO.N,/3.3V_A*%
X66400000Y-126375000D03*
D15*
%TO.P,MPU6500,2,Pin_2*%
%TO.N,/A0*%
X68940000Y-126375000D03*
%TO.P,MPU6500,3,Pin_3*%
%TO.N,/SC1*%
X71480000Y-126375000D03*
%TO.P,MPU6500,4,Pin_4*%
%TO.N,/SD1*%
X74020000Y-126375000D03*
%TO.P,MPU6500,5,Pin_5*%
%TO.N,/EDA_MPU*%
X76560000Y-126375000D03*
%TO.P,MPU6500,6,Pin_6*%
%TO.N,/ECL_MPU*%
X79100000Y-126375000D03*
%TO.P,MPU6500,7,Pin_7*%
%TO.N,/A0*%
X81640000Y-126375000D03*
%TO.P,MPU6500,8,Pin_8*%
%TO.N,/2*%
X84180000Y-126375000D03*
%TO.P,MPU6500,9,Pin_9*%
%TO.N,/NCS_MPU*%
X86720000Y-126375000D03*
%TO.P,MPU6500,10,Pin_10*%
%TO.N,/A0*%
X89260000Y-126375000D03*
%TD*%
D14*
%TO.P,PCA9548A_U1,1,Pin_1*%
%TO.N,/SC7*%
X103660000Y-133900000D03*
D15*
%TO.P,PCA9548A_U1,2,Pin_2*%
%TO.N,/SD7*%
X106200000Y-133900000D03*
%TO.P,PCA9548A_U1,3,Pin_3*%
%TO.N,unconnected-(PCA9548A_U1-Pin_3-Pad3)*%
X108740000Y-133900000D03*
%TO.P,PCA9548A_U1,4,Pin_4*%
%TO.N,unconnected-(PCA9548A_U1-Pin_4-Pad4)*%
X111280000Y-133900000D03*
%TO.P,PCA9548A_U1,5,Pin_5*%
%TO.N,unconnected-(PCA9548A_U1-Pin_5-Pad5)*%
X113820000Y-133900000D03*
%TO.P,PCA9548A_U1,6,Pin_6*%
%TO.N,unconnected-(PCA9548A_U1-Pin_6-Pad6)*%
X116360000Y-133900000D03*
%TO.P,PCA9548A_U1,7,Pin_7*%
%TO.N,/SC4*%
X118900000Y-133900000D03*
%TO.P,PCA9548A_U1,8,Pin_8*%
%TO.N,/SD4*%
X121440000Y-133900000D03*
%TO.P,PCA9548A_U1,9,Pin_9*%
%TO.N,/SC3*%
X123980000Y-133900000D03*
%TO.P,PCA9548A_U1,10,Pin_10*%
%TO.N,/SD3*%
X126520000Y-133900000D03*
%TO.P,PCA9548A_U1,11,Pin_11*%
%TO.N,/SC2*%
X129060000Y-133900000D03*
%TO.P,PCA9548A_U1,12,Pin_12*%
%TO.N,/SD2*%
X131600000Y-133900000D03*
%TD*%
D19*
%TO.P,T3_BATTERY,1,Pin_1*%
%TO.N,/3.3V_A*%
X154000000Y-109100000D03*
D20*
%TO.P,T3_BATTERY,2,Pin_2*%
%TO.N,/16*%
X154000000Y-106600000D03*
%TO.P,T3_BATTERY,3,Pin_3*%
%TO.N,/A0*%
X154000000Y-104100000D03*
%TD*%
D10*
%TO.P,R7,1*%
%TO.N,/18*%
X136760000Y-121100000D03*
%TO.P,R7,2*%
%TO.N,/3.3V_A*%
X139300000Y-121100000D03*
%TD*%
D19*
%TO.P,T2_ATMOSPHERE,1,Pin_1*%
%TO.N,/3.3V_A*%
X154000000Y-122800000D03*
D20*
%TO.P,T2_ATMOSPHERE,2,Pin_2*%
%TO.N,/15*%
X154000000Y-120300000D03*
%TO.P,T2_ATMOSPHERE,3,Pin_3*%
%TO.N,/A0*%
X154000000Y-117800000D03*
%TD*%
D14*
%TO.P,LoRa1,1,Pin_1*%
%TO.N,/GND_Digital*%
X127840000Y-63100000D03*
D15*
%TO.P,LoRa1,2,Pin_2*%
%TO.N,/7*%
X130380000Y-63100000D03*
%TO.P,LoRa1,3,Pin_3*%
%TO.N,/8*%
X132920000Y-63100000D03*
%TO.P,LoRa1,4,Pin_4*%
%TO.N,/3*%
X135460000Y-63100000D03*
%TO.P,LoRa1,5,Pin_5*%
%TO.N,/VCC_Digital*%
X138000000Y-63100000D03*
%TD*%
D17*
%TO.P,Pin23,1,K*%
%TO.N,/GND_BUCK*%
X137000000Y-99675000D03*
D18*
%TO.P,Pin23,2,A*%
%TO.N,Net-(Pin23-A)*%
X137000000Y-97135000D03*
%TD*%
D14*
%TO.P,GPS1,1,Pin_1*%
%TO.N,/GND_BUCK*%
X137500000Y-70500000D03*
D15*
%TO.P,GPS1,2,Pin_2*%
%TO.N,/1*%
X134960000Y-70500000D03*
%TO.P,GPS1,3,Pin_3*%
%TO.N,/0*%
X132420000Y-70500000D03*
%TO.P,GPS1,4,Pin_4*%
%TO.N,/5V_Buck*%
X129880000Y-70500000D03*
%TD*%
D14*
%TO.P,Teensy_R1,1,Pin_1*%
%TO.N,/5V_Buck*%
X121300000Y-63860000D03*
D15*
%TO.P,Teensy_R1,2,Pin_2*%
%TO.N,/GND_BUCK*%
X121300000Y-66400000D03*
%TO.P,Teensy_R1,3,Pin_3*%
%TO.N,/3.3V_T*%
X121300000Y-68940000D03*
%TO.P,Teensy_R1,4,Pin_4*%
%TO.N,/23*%
X121300000Y-71480000D03*
%TO.P,Teensy_R1,5,Pin_5*%
%TO.N,/22*%
X121300000Y-74020000D03*
%TO.P,Teensy_R1,6,Pin_6*%
%TO.N,/21*%
X121300000Y-76560000D03*
%TO.P,Teensy_R1,7,Pin_7*%
%TO.N,/20*%
X121300000Y-79100000D03*
%TO.P,Teensy_R1,8,Pin_8*%
%TO.N,/19*%
X121300000Y-81640000D03*
%TO.P,Teensy_R1,9,Pin_9*%
%TO.N,/18*%
X121300000Y-84180000D03*
%TO.P,Teensy_R1,10,Pin_10*%
%TO.N,/17*%
X121300000Y-86720000D03*
%TO.P,Teensy_R1,11,Pin_11*%
%TO.N,/16*%
X121300000Y-89260000D03*
%TO.P,Teensy_R1,12,Pin_12*%
%TO.N,/15*%
X121300000Y-91800000D03*
%TO.P,Teensy_R1,13,Pin_13*%
%TO.N,/14*%
X121300000Y-94340000D03*
%TO.P,Teensy_R1,14,Pin_14*%
%TO.N,/13*%
X121300000Y-96880000D03*
%TO.P,Teensy_R1,15,Pin_15*%
%TO.N,unconnected-(Teensy_R1-Pin_15-Pad15)*%
X121300000Y-99420000D03*
%TO.P,Teensy_R1,16,Pin_16*%
%TO.N,/41*%
X121300000Y-101960000D03*
%TO.P,Teensy_R1,17,Pin_17*%
%TO.N,/40*%
X121300000Y-104500000D03*
%TO.P,Teensy_R1,18,Pin_18*%
%TO.N,unconnected-(Teensy_R1-Pin_18-Pad18)*%
X121300000Y-107040000D03*
%TO.P,Teensy_R1,19,Pin_19*%
%TO.N,unconnected-(Teensy_R1-Pin_19-Pad19)*%
X121300000Y-109580000D03*
%TO.P,Teensy_R1,20,Pin_20*%
%TO.N,unconnected-(Teensy_R1-Pin_20-Pad20)*%
X121300000Y-112120000D03*
%TO.P,Teensy_R1,21,Pin_21*%
%TO.N,/36*%
X121300000Y-114660000D03*
%TO.P,Teensy_R1,22,Pin_22*%
%TO.N,/35*%
X121300000Y-117200000D03*
%TO.P,Teensy_R1,23,Pin_23*%
%TO.N,/34*%
X121300000Y-119740000D03*
%TO.P,Teensy_R1,24,Pin_24*%
%TO.N,/33*%
X121300000Y-122280000D03*
%TD*%
D14*
%TO.P,Teensy_L1,1,Pin_1*%
%TO.N,unconnected-(Teensy_L1-Pin_1-Pad1)*%
X106160000Y-63860000D03*
D15*
%TO.P,Teensy_L1,2,Pin_2*%
%TO.N,/0*%
X106160000Y-66400000D03*
%TO.P,Teensy_L1,3,Pin_3*%
%TO.N,/1*%
X106160000Y-68940000D03*
%TO.P,Teensy_L1,4,Pin_4*%
%TO.N,/2*%
X106160000Y-71480000D03*
%TO.P,Teensy_L1,5,Pin_5*%
%TO.N,/3*%
X106160000Y-74020000D03*
%TO.P,Teensy_L1,6,Pin_6*%
%TO.N,/4*%
X106160000Y-76560000D03*
%TO.P,Teensy_L1,7,Pin_7*%
%TO.N,/5*%
X106160000Y-79100000D03*
%TO.P,Teensy_L1,8,Pin_8*%
%TO.N,/6*%
X106160000Y-81640000D03*
%TO.P,Teensy_L1,9,Pin_9*%
%TO.N,/7*%
X106160000Y-84180000D03*
%TO.P,Teensy_L1,10,Pin_10*%
%TO.N,/8*%
X106160000Y-86720000D03*
%TO.P,Teensy_L1,11,Pin_11*%
%TO.N,/9*%
X106160000Y-89260000D03*
%TO.P,Teensy_L1,12,Pin_12*%
%TO.N,/10*%
X106160000Y-91800000D03*
%TO.P,Teensy_L1,13,Pin_13*%
%TO.N,/11*%
X106160000Y-94340000D03*
%TO.P,Teensy_L1,14,Pin_14*%
%TO.N,/12*%
X106160000Y-96880000D03*
%TO.P,Teensy_L1,15,Pin_15*%
%TO.N,/3.3V_T*%
X106160000Y-99420000D03*
%TO.P,Teensy_L1,16,Pin_16*%
%TO.N,/24*%
X106160000Y-101960000D03*
%TO.P,Teensy_L1,17,Pin_17*%
%TO.N,/25*%
X106160000Y-104500000D03*
%TO.P,Teensy_L1,18,Pin_18*%
%TO.N,unconnected-(Teensy_L1-Pin_18-Pad18)*%
X106160000Y-107040000D03*
%TO.P,Teensy_L1,19,Pin_19*%
%TO.N,unconnected-(Teensy_L1-Pin_19-Pad19)*%
X106160000Y-109580000D03*
%TO.P,Teensy_L1,20,Pin_20*%
%TO.N,unconnected-(Teensy_L1-Pin_20-Pad20)*%
X106160000Y-112120000D03*
%TO.P,Teensy_L1,21,Pin_21*%
%TO.N,unconnected-(Teensy_L1-Pin_21-Pad21)*%
X106160000Y-114660000D03*
%TO.P,Teensy_L1,22,Pin_22*%
%TO.N,/30*%
X106160000Y-117200000D03*
%TO.P,Teensy_L1,23,Pin_23*%
%TO.N,/31*%
X106160000Y-119740000D03*
%TO.P,Teensy_L1,24,Pin_24*%
%TO.N,/32*%
X106160000Y-122280000D03*
%TD*%
D10*
%TO.P,R2,1*%
%TO.N,Net-(Analog1-A)*%
X86900000Y-142300000D03*
%TO.P,R2,2*%
%TO.N,/3.3V_A*%
X76740000Y-142300000D03*
%TD*%
D16*
%TO.P,10uF,1*%
%TO.N,/A0*%
X66900000Y-83100000D03*
%TO.P,10uF,2*%
%TO.N,/3.3V_A*%
X64900000Y-83100000D03*
%TD*%
D10*
%TO.P,100nF,1*%
%TO.N,/GND_BUCK*%
X143200000Y-75700000D03*
%TO.P,100nF,2*%
%TO.N,/5V_Buck*%
X143200000Y-78200000D03*
%TD*%
D14*
%TO.P,BME280,1,Pin_1*%
%TO.N,/A0*%
X79300000Y-82400000D03*
D15*
%TO.P,BME280,2,Pin_2*%
%TO.N,/3.3V_A*%
X81840000Y-82400000D03*
%TO.P,BME280,3,Pin_3*%
%TO.N,/SD7*%
X84380000Y-82400000D03*
%TO.P,BME280,4,Pin_4*%
%TO.N,/SC7*%
X86920000Y-82400000D03*
%TO.P,BME280,5,Pin_5*%
%TO.N,/3.3V_A*%
X89460000Y-82400000D03*
%TO.P,BME280,6,Pin_6*%
%TO.N,/A0*%
X92000000Y-82400000D03*
%TD*%
D10*
%TO.P,100nF,1*%
%TO.N,/A0*%
X67250000Y-90100000D03*
%TO.P,100nF,2*%
%TO.N,/3.3V_A*%
X64750000Y-90100000D03*
%TD*%
%TO.P,100nF_C4,1*%
%TO.N,/3.3V_A*%
X131400000Y-115700000D03*
%TO.P,100nF_C4,2*%
%TO.N,/A0*%
X128900000Y-115700000D03*
%TD*%
D16*
%TO.P,10uF,1*%
%TO.N,/GND_Digital*%
X148100000Y-70000000D03*
%TO.P,10uF,2*%
%TO.N,/VCC_Digital*%
X148100000Y-68000000D03*
%TD*%
%TO.P,10uF,1*%
%TO.N,/A0*%
X86800000Y-153000000D03*
%TO.P,10uF,2*%
%TO.N,/3.3V_A*%
X86800000Y-151000000D03*
%TD*%
D19*
%TO.P,Voltage/Current1,1,Pin_1*%
%TO.N,/SC3*%
X153800000Y-141200000D03*
D20*
%TO.P,Voltage/Current1,2,Pin_2*%
%TO.N,/SD3*%
X153800000Y-138700000D03*
%TO.P,Voltage/Current1,3,Pin_3*%
%TO.N,/SC4*%
X153800000Y-136200000D03*
%TO.P,Voltage/Current1,4,Pin_4*%
%TO.N,/SD4*%
X153800000Y-133700000D03*
%TD*%
D10*
%TO.P,100nF,1*%
%TO.N,/GND_Digital*%
X143300000Y-65200000D03*
%TO.P,100nF,2*%
%TO.N,/VCC_Digital*%
X143300000Y-62700000D03*
%TD*%
%TO.P,R1,1*%
%TO.N,/4*%
X113880000Y-146600000D03*
%TO.P,R1,2*%
%TO.N,/3.3V_A*%
X103720000Y-146600000D03*
%TD*%
%TO.P,100nF_C5,1*%
%TO.N,/3.3V_A*%
X147700000Y-121800000D03*
%TO.P,100nF_C5,2*%
%TO.N,/A0*%
X147700000Y-119300000D03*
%TD*%
D14*
%TO.P,PCA9548A_D1,1,Pin_1*%
%TO.N,/3.3V_A*%
X103660000Y-151400000D03*
D15*
%TO.P,PCA9548A_D1,2,Pin_2*%
%TO.N,/A0*%
X106200000Y-151400000D03*
%TO.P,PCA9548A_D1,3,Pin_3*%
%TO.N,/18*%
X108740000Y-151400000D03*
%TO.P,PCA9548A_D1,4,Pin_4*%
%TO.N,/19*%
X111280000Y-151400000D03*
%TO.P,PCA9548A_D1,5,Pin_5*%
%TO.N,/4*%
X113820000Y-151400000D03*
%TO.P,PCA9548A_D1,6,Pin_6*%
%TO.N,/A0*%
X116360000Y-151400000D03*
%TO.P,PCA9548A_D1,7,Pin_7*%
X118900000Y-151400000D03*
%TO.P,PCA9548A_D1,8,Pin_8*%
X121440000Y-151400000D03*
%TO.P,PCA9548A_D1,9,Pin_9*%
%TO.N,/SD0*%
X123980000Y-151400000D03*
%TO.P,PCA9548A_D1,10,Pin_10*%
%TO.N,/SC0*%
X126520000Y-151400000D03*
%TO.P,PCA9548A_D1,11,Pin_11*%
%TO.N,/SD1*%
X129060000Y-151400000D03*
%TO.P,PCA9548A_D1,12,Pin_12*%
%TO.N,/SC1*%
X131600000Y-151400000D03*
%TD*%
D21*
%TO.P,T1_CUDE1,1,Pin_1*%
%TO.N,/3.3V_A*%
X131800000Y-110600000D03*
D22*
%TO.P,T1_CUDE1,2,Pin_2*%
%TO.N,/14*%
X130530000Y-110600000D03*
%TO.P,T1_CUDE1,3,Pin_3*%
%TO.N,/A0*%
X129260000Y-110600000D03*
%TD*%
D11*
%TO.P,5V_P.S.,1,Pin_1*%
%TO.N,/5V_Buck*%
X154275000Y-91150000D03*
D12*
%TO.P,5V_P.S.,2,Pin_2*%
%TO.N,/GND_BUCK*%
X154275000Y-88650000D03*
%TD*%
D17*
%TO.P,Digital1,1,K*%
%TO.N,/GND_Digital*%
X143800000Y-99675000D03*
D18*
%TO.P,Digital1,2,A*%
%TO.N,Net-(Digital1-A)*%
X143800000Y-97135000D03*
%TD*%
D17*
%TO.P,Pin22,1,K*%
%TO.N,/GND_BUCK*%
X130200000Y-99675000D03*
D18*
%TO.P,Pin22,2,A*%
%TO.N,Net-(Pin22-A)*%
X130200000Y-97135000D03*
%TD*%
D16*
%TO.P,10uF,1*%
%TO.N,/GND_BUCK*%
X130400000Y-75800000D03*
%TO.P,10uF,2*%
%TO.N,/5V_Buck*%
X130400000Y-77800000D03*
%TD*%
D23*
%TO.N,/3.3V_A*%
X69900000Y-78100000D03*
%TO.N,/SD4*%
X121440000Y-128960000D03*
%TO.N,/A0*%
X76200000Y-147200000D03*
%TO.N,/3.3V_A*%
X159400000Y-109500000D03*
X90800000Y-80300000D03*
X159400000Y-123200000D03*
%TO.N,/VCC_Digital*%
X148500000Y-84600000D03*
%TO.N,/18*%
X126300000Y-85100000D03*
X134600000Y-154100000D03*
%TO.N,/19*%
X135800000Y-151600000D03*
%TO.N,/8*%
X113000000Y-86800000D03*
X116700000Y-81175735D03*
%TO.N,/SD4*%
X127100000Y-125800000D03*
%TO.N,/SD3*%
X131700000Y-128100000D03*
X126520000Y-131500000D03*
%TO.N,/1*%
X115500000Y-60700000D03*
%TO.N,/GND_BUCK*%
X130800000Y-72700000D03*
X148800000Y-78100000D03*
%TO.N,/5V_Buck*%
X147200000Y-78200000D03*
%TD*%
D24*
%TO.N,/3.3V_A*%
X86800000Y-151000000D02*
X86200000Y-151000000D01*
X80600000Y-145400000D02*
X68800000Y-145400000D01*
X86200000Y-151000000D02*
X80600000Y-145400000D01*
%TO.N,/A0*%
X81700000Y-128500000D02*
X80500000Y-128500000D01*
X81640000Y-126375000D02*
X81640000Y-127360000D01*
X81640000Y-127360000D02*
X80500000Y-128500000D01*
X81700000Y-128500000D02*
X88400000Y-128500000D01*
X88400000Y-128500000D02*
X89260000Y-127640000D01*
X80500000Y-128500000D02*
X71065000Y-128500000D01*
X71065000Y-128500000D02*
X70765000Y-128200000D01*
%TO.N,/3.3V_A*%
X66400000Y-126375000D02*
X66400000Y-125000000D01*
X64800000Y-123400000D02*
X64800000Y-110300000D01*
X66400000Y-125000000D02*
X64800000Y-123400000D01*
%TO.N,/SC1*%
X71480000Y-126375000D02*
X71480000Y-125620000D01*
X71480000Y-125620000D02*
X73300000Y-123800000D01*
X92200000Y-123800000D02*
X93500000Y-125100000D01*
X73300000Y-123800000D02*
X92200000Y-123800000D01*
X93500000Y-125100000D02*
X93500000Y-136900000D01*
X93500000Y-136900000D02*
X97200000Y-140600000D01*
X97200000Y-140600000D02*
X128400000Y-140600000D01*
X131700000Y-151300000D02*
X131600000Y-151400000D01*
X128400000Y-140600000D02*
X131700000Y-143900000D01*
X131700000Y-143900000D02*
X131700000Y-151300000D01*
%TO.N,/SD1*%
X74020000Y-125480000D02*
X75200000Y-124300000D01*
X75200000Y-124300000D02*
X91800000Y-124300000D01*
X74020000Y-126375000D02*
X74020000Y-125480000D01*
X91800000Y-124300000D02*
X92800000Y-125300000D01*
X92800000Y-125300000D02*
X92800000Y-138600000D01*
X92800000Y-138600000D02*
X96000000Y-141800000D01*
X96000000Y-141800000D02*
X126500000Y-141800000D01*
X126500000Y-141800000D02*
X129060000Y-144360000D01*
X129060000Y-144360000D02*
X129060000Y-151400000D01*
%TO.N,/A0*%
X76300000Y-132800000D02*
X75400000Y-132800000D01*
X75400000Y-132800000D02*
X70800000Y-128200000D01*
X70800000Y-128200000D02*
X70765000Y-128200000D01*
X70765000Y-128200000D02*
X68940000Y-126375000D01*
X77500000Y-134000000D02*
X76300000Y-132800000D01*
X76300000Y-132800000D02*
X71300000Y-132800000D01*
X71300000Y-132800000D02*
X69900000Y-134200000D01*
X89260000Y-127900000D02*
X89260000Y-126375000D01*
X85700000Y-132800000D02*
X87300000Y-132800000D01*
X87300000Y-132800000D02*
X89260000Y-130840000D01*
X89260000Y-130840000D02*
X89260000Y-127900000D01*
%TO.N,Net-(Analog1-A)*%
X86900000Y-142300000D02*
X86900000Y-136540000D01*
X86900000Y-136540000D02*
X85700000Y-135340000D01*
%TO.N,/3.3V_A*%
X64900000Y-144000000D02*
X64900000Y-137800000D01*
X75500000Y-136600000D02*
X66100000Y-136600000D01*
X66100000Y-136600000D02*
X64900000Y-137800000D01*
X75500000Y-136400000D02*
X75500000Y-134000000D01*
X76740000Y-137840000D02*
X75500000Y-136600000D01*
X76740000Y-142300000D02*
X76740000Y-137840000D01*
X75500000Y-136600000D02*
X75500000Y-136400000D01*
X64900000Y-137800000D02*
X64900000Y-136600000D01*
X67400000Y-134200000D02*
X65000000Y-136600000D01*
X65000000Y-136600000D02*
X64900000Y-136600000D01*
X68800000Y-145400000D02*
X66300000Y-145400000D01*
X66300000Y-145400000D02*
X64900000Y-144000000D01*
X64900000Y-136600000D02*
X64900000Y-127875000D01*
X64900000Y-127875000D02*
X66400000Y-126375000D01*
X68800000Y-145400000D02*
X68900000Y-145500000D01*
%TO.N,/A0*%
X76200000Y-147200000D02*
X76300000Y-147200000D01*
X76300000Y-147200000D02*
X81900000Y-152800000D01*
X81900000Y-152800000D02*
X85600000Y-156500000D01*
X156000000Y-147600000D02*
X158600000Y-145000000D01*
X85600000Y-156500000D02*
X134500000Y-156500000D01*
X143400000Y-147600000D02*
X156000000Y-147600000D01*
X134500000Y-156500000D02*
X143400000Y-147600000D01*
X158600000Y-145000000D02*
X158600000Y-127800000D01*
X76200000Y-147200000D02*
X81000000Y-147200000D01*
X81000000Y-147200000D02*
X86800000Y-153000000D01*
%TO.N,/SC2*%
X85520000Y-103180000D02*
X86900000Y-101800000D01*
X86900000Y-101800000D02*
X96800000Y-101800000D01*
X102800000Y-138800000D02*
X127700000Y-138800000D01*
X129100000Y-137400000D02*
X129060000Y-137360000D01*
X96800000Y-101800000D02*
X97800000Y-102800000D01*
X97800000Y-102800000D02*
X97800000Y-133800000D01*
X85520000Y-105400000D02*
X85520000Y-103180000D01*
X97800000Y-133800000D02*
X102800000Y-138800000D01*
X127700000Y-138800000D02*
X129100000Y-137400000D01*
X129060000Y-137360000D02*
X129060000Y-133900000D01*
%TO.N,/A0*%
X68100000Y-107800000D02*
X81600000Y-107800000D01*
X82980000Y-106420000D02*
X81600000Y-107800000D01*
X82980000Y-105400000D02*
X82980000Y-106420000D01*
X81600000Y-107800000D02*
X89500000Y-107800000D01*
X67300000Y-110300000D02*
X67300000Y-108600000D01*
X67300000Y-108600000D02*
X68100000Y-107800000D01*
X89500000Y-107800000D02*
X90600000Y-106700000D01*
X90600000Y-106700000D02*
X90600000Y-105400000D01*
%TO.N,/3.3V_A*%
X69000000Y-103700000D02*
X68900000Y-103600000D01*
%TO.N,/A0*%
X82980000Y-105400000D02*
X82980000Y-103880000D01*
X82980000Y-103880000D02*
X82200000Y-103100000D01*
X68700000Y-102000000D02*
X68700000Y-91550000D01*
X82200000Y-103100000D02*
X69800000Y-103100000D01*
X69800000Y-103100000D02*
X68700000Y-102000000D01*
X68700000Y-91550000D02*
X67250000Y-90100000D01*
%TO.N,/3.3V_A*%
X80440000Y-105400000D02*
X78740000Y-103700000D01*
X68900000Y-103600000D02*
X63400000Y-98100000D01*
X63400000Y-98100000D02*
X63400000Y-91450000D01*
X78740000Y-103700000D02*
X69000000Y-103700000D01*
X63400000Y-91450000D02*
X64750000Y-90100000D01*
X69900000Y-78100000D02*
X67900000Y-80100000D01*
%TO.N,/SD7*%
X106200000Y-133900000D02*
X106200000Y-131400000D01*
X106200000Y-131400000D02*
X101700000Y-126900000D01*
X101700000Y-83800000D02*
X96400000Y-78500000D01*
X96400000Y-78500000D02*
X85600000Y-78500000D01*
X101700000Y-126900000D02*
X101700000Y-83800000D01*
X84380000Y-79720000D02*
X84380000Y-82400000D01*
X85600000Y-78500000D02*
X84380000Y-79720000D01*
%TO.N,/23*%
X136500000Y-82840000D02*
X133340000Y-82840000D01*
X127400000Y-81300000D02*
X125100000Y-79000000D01*
X125100000Y-79000000D02*
X125100000Y-72500000D01*
X131800000Y-81300000D02*
X127400000Y-81300000D01*
X133340000Y-82840000D02*
X131800000Y-81300000D01*
X125100000Y-72500000D02*
X124080000Y-71480000D01*
X124080000Y-71480000D02*
X121300000Y-71480000D01*
%TO.N,/22*%
X130300000Y-82740000D02*
X127640000Y-82740000D01*
X123600000Y-75700000D02*
X121920000Y-74020000D01*
X127640000Y-82740000D02*
X123600000Y-78700000D01*
X123600000Y-78700000D02*
X123600000Y-75700000D01*
X121920000Y-74020000D02*
X121300000Y-74020000D01*
%TO.N,/16*%
X145100000Y-106800000D02*
X130500000Y-106800000D01*
X152000000Y-106600000D02*
X150800000Y-105400000D01*
X150300000Y-103000000D02*
X146400000Y-103000000D01*
X123060000Y-89260000D02*
X121300000Y-89260000D01*
X150800000Y-103500000D02*
X150300000Y-103000000D01*
X145200000Y-106700000D02*
X145100000Y-106800000D01*
X146400000Y-103000000D02*
X145200000Y-104200000D01*
X150800000Y-105400000D02*
X150800000Y-103500000D01*
X145200000Y-104200000D02*
X145200000Y-106700000D01*
X130500000Y-106800000D02*
X125400000Y-101700000D01*
X125400000Y-101700000D02*
X125400000Y-91600000D01*
X154000000Y-106600000D02*
X152000000Y-106600000D01*
X125400000Y-91600000D02*
X123060000Y-89260000D01*
%TO.N,/15*%
X121300000Y-91800000D02*
X123300000Y-91800000D01*
X123300000Y-91800000D02*
X124799000Y-93299000D01*
X130401000Y-107701000D02*
X143301000Y-107701000D01*
X124799000Y-93299000D02*
X124799000Y-102099000D01*
X124799000Y-102099000D02*
X130401000Y-107701000D01*
X145300000Y-112600000D02*
X153000000Y-120300000D01*
X143301000Y-107701000D02*
X145300000Y-109700000D01*
X145300000Y-109700000D02*
X145300000Y-112600000D01*
X153000000Y-120300000D02*
X154000000Y-120300000D01*
%TO.N,/14*%
X130530000Y-110600000D02*
X130530000Y-108930000D01*
X130530000Y-108930000D02*
X124300000Y-102700000D01*
X124300000Y-95900000D02*
X122740000Y-94340000D01*
X124300000Y-102700000D02*
X124300000Y-95900000D01*
X122740000Y-94340000D02*
X121300000Y-94340000D01*
%TO.N,/GND_BUCK*%
X137000000Y-99675000D02*
X137000000Y-101400000D01*
X159300000Y-90800000D02*
X157150000Y-88650000D01*
X137000000Y-101400000D02*
X137900000Y-102300000D01*
X159300000Y-96600000D02*
X159300000Y-90800000D01*
X137900000Y-102300000D02*
X149500000Y-102300000D01*
X149500000Y-102300000D02*
X152300000Y-99500000D01*
X152300000Y-99500000D02*
X156400000Y-99500000D01*
X156400000Y-99500000D02*
X159300000Y-96600000D01*
X157150000Y-88650000D02*
X154275000Y-88650000D01*
%TO.N,/18*%
X108740000Y-151400000D02*
X108740000Y-153840000D01*
X133100000Y-155700000D02*
X134600000Y-154200000D01*
X108740000Y-153840000D02*
X110600000Y-155700000D01*
X134600000Y-154200000D02*
X134600000Y-154100000D01*
X110600000Y-155700000D02*
X133100000Y-155700000D01*
X108740000Y-151400000D02*
X108700000Y-151440000D01*
%TO.N,/19*%
X135800000Y-151600000D02*
X132700000Y-154700000D01*
X132700000Y-154700000D02*
X112800000Y-154700000D01*
X111280000Y-153180000D02*
X111280000Y-151400000D01*
X112800000Y-154700000D02*
X111280000Y-153180000D01*
%TO.N,/SD4*%
X127100000Y-125800000D02*
X139300000Y-125800000D01*
X139300000Y-125800000D02*
X142400000Y-128900000D01*
X142400000Y-128900000D02*
X142400000Y-132700000D01*
X142400000Y-132700000D02*
X143400000Y-133700000D01*
X143400000Y-133700000D02*
X153800000Y-133700000D01*
%TO.N,/SC4*%
X139200000Y-127200000D02*
X120300000Y-127200000D01*
X118900000Y-128600000D02*
X118900000Y-133900000D01*
X142300000Y-136200000D02*
X140700000Y-134600000D01*
X153800000Y-136200000D02*
X142300000Y-136200000D01*
X140700000Y-134600000D02*
X140700000Y-128700000D01*
X120300000Y-127200000D02*
X118900000Y-128600000D01*
X140700000Y-128700000D02*
X139200000Y-127200000D01*
%TO.N,/SD2*%
X88060000Y-105400000D02*
X88060000Y-103440000D01*
X131700000Y-135300000D02*
X131600000Y-135200000D01*
X89000000Y-102500000D02*
X94800000Y-102500000D01*
X131700000Y-136400000D02*
X131700000Y-135300000D01*
X94800000Y-102500000D02*
X96100000Y-103800000D01*
X88060000Y-103440000D02*
X89000000Y-102500000D01*
X131600000Y-135200000D02*
X131600000Y-133900000D01*
X96100000Y-103800000D02*
X96100000Y-135599998D01*
X96100000Y-135599998D02*
X100100002Y-139600000D01*
X100100002Y-139600000D02*
X128500000Y-139600000D01*
X128500000Y-139600000D02*
X131700000Y-136400000D01*
%TO.N,/SC7*%
X99800000Y-83800000D02*
X95100000Y-79100000D01*
X103400000Y-131200000D02*
X103300000Y-131200000D01*
X103660000Y-131460000D02*
X103400000Y-131200000D01*
X95100000Y-79100000D02*
X88000000Y-79100000D01*
X88000000Y-79100000D02*
X86920000Y-80180000D01*
X99800000Y-127700000D02*
X99800000Y-83800000D01*
X103300000Y-131200000D02*
X99800000Y-127700000D01*
X86920000Y-80180000D02*
X86920000Y-82400000D01*
X103660000Y-133900000D02*
X103660000Y-131460000D01*
%TO.N,/A0*%
X78550000Y-84950000D02*
X91250000Y-84950000D01*
X147817100Y-105250000D02*
X146100000Y-106967100D01*
X116360000Y-151400000D02*
X118900000Y-151400000D01*
X78550000Y-84950000D02*
X79300000Y-84200000D01*
X129260000Y-115340000D02*
X128900000Y-115700000D01*
X157100000Y-126300000D02*
X158600000Y-127800000D01*
X68800000Y-126515000D02*
X68940000Y-126375000D01*
X146100000Y-106967100D02*
X146100000Y-110700000D01*
X157000000Y-112500000D02*
X158600000Y-114100000D01*
X67250000Y-90100000D02*
X67250000Y-83450000D01*
X107200000Y-149300000D02*
X106300000Y-150200000D01*
X128900000Y-115700000D02*
X128700000Y-115500000D01*
X128800000Y-115800000D02*
X128800000Y-123200000D01*
X156700000Y-117800000D02*
X158600000Y-115900000D01*
X68800000Y-85000000D02*
X78500000Y-85000000D01*
X158600000Y-108700000D02*
X158600000Y-114100000D01*
X95650000Y-153000000D02*
X95900000Y-153250000D01*
X104350000Y-153250000D02*
X106200000Y-151400000D01*
X66900000Y-83100000D02*
X68800000Y-85000000D01*
X78500000Y-85000000D02*
X78550000Y-84950000D01*
X146100000Y-110700000D02*
X147900000Y-112500000D01*
X118900000Y-151200000D02*
X119100000Y-151400000D01*
X158600000Y-108700000D02*
X154000000Y-104100000D01*
X82900000Y-105480000D02*
X82980000Y-105400000D01*
X119100000Y-151400000D02*
X121440000Y-151400000D01*
X148100000Y-126300000D02*
X157100000Y-126300000D01*
X146100000Y-124300000D02*
X148100000Y-126300000D01*
X115800000Y-149300000D02*
X107200000Y-149300000D01*
X95900000Y-153250000D02*
X104350000Y-153250000D01*
X154000000Y-117800000D02*
X156700000Y-117800000D01*
X106300000Y-150200000D02*
X106200000Y-150200000D01*
X67250000Y-83450000D02*
X66900000Y-83100000D01*
X118900000Y-151400000D02*
X118900000Y-151200000D01*
X92000000Y-84200000D02*
X92000000Y-82400000D01*
X116360000Y-149860000D02*
X115800000Y-149300000D01*
X147925000Y-105250000D02*
X147817100Y-105250000D01*
X158600000Y-114100000D02*
X158600000Y-115900000D01*
X129260000Y-110600000D02*
X129260000Y-115340000D01*
X106200000Y-150200000D02*
X106200000Y-151400000D01*
X146100000Y-120900000D02*
X146100000Y-124300000D01*
X91250000Y-84950000D02*
X92000000Y-84200000D01*
X158600000Y-115900000D02*
X158600000Y-127800000D01*
X116360000Y-151400000D02*
X116360000Y-149860000D01*
X147900000Y-112500000D02*
X157000000Y-112500000D01*
X128900000Y-115700000D02*
X128800000Y-115800000D01*
X128800000Y-123200000D02*
X129900000Y-124300000D01*
X129900000Y-124300000D02*
X146100000Y-124300000D01*
X79300000Y-84200000D02*
X79300000Y-82400000D01*
X86800000Y-153000000D02*
X95650000Y-153000000D01*
X147700000Y-119300000D02*
X146100000Y-120900000D01*
%TO.N,/3.3V_A*%
X138500000Y-115700000D02*
X131400000Y-115700000D01*
X67900000Y-80100000D02*
X80900000Y-80100000D01*
X131400000Y-111100000D02*
X131400000Y-115700000D01*
X147700000Y-121800000D02*
X153000000Y-121800000D01*
X64750000Y-83250000D02*
X64900000Y-83100000D01*
X140099999Y-116900001D02*
X139300000Y-117700000D01*
X95650000Y-151000000D02*
X95900000Y-150750000D01*
X149600000Y-121100000D02*
X149600000Y-118300000D01*
X80900000Y-80100000D02*
X81840000Y-81040000D01*
X139300000Y-117700000D02*
X139300000Y-116500000D01*
X159400000Y-123200000D02*
X159400000Y-109500000D01*
X90800000Y-81060000D02*
X90800000Y-80300000D01*
X64750000Y-90100000D02*
X64750000Y-83250000D01*
X148400000Y-116900000D02*
X141000000Y-116900000D01*
X147925000Y-107750000D02*
X152650000Y-107750000D01*
X131800000Y-110700000D02*
X131400000Y-111100000D01*
X131800000Y-110600000D02*
X131800000Y-110700000D01*
X89460000Y-82400000D02*
X90800000Y-81060000D01*
X153000000Y-121800000D02*
X154000000Y-122800000D01*
X148900000Y-121800000D02*
X149600000Y-121100000D01*
X139300000Y-116500000D02*
X138500000Y-115700000D01*
X86800000Y-151000000D02*
X95650000Y-151000000D01*
X152650000Y-107750000D02*
X154000000Y-109100000D01*
X96600000Y-151400000D02*
X103660000Y-151400000D01*
X95900000Y-150750000D02*
X95950000Y-150750000D01*
X149700000Y-118200000D02*
X148400000Y-116900000D01*
X80400000Y-105440000D02*
X80440000Y-105400000D01*
X141000000Y-116900000D02*
X140099999Y-116900001D01*
X139300000Y-117700000D02*
X139300000Y-121100000D01*
X81840000Y-81040000D02*
X81840000Y-82400000D01*
X64900000Y-83100000D02*
X67900000Y-80100000D01*
X95950000Y-150750000D02*
X96600000Y-151400000D01*
X149600000Y-118300000D02*
X149700000Y-118200000D01*
X147700000Y-121800000D02*
X148900000Y-121800000D01*
%TO.N,/VCC_Digital*%
X148100000Y-68000000D02*
X151800000Y-71700000D01*
X159000000Y-74000000D02*
X159000000Y-77800000D01*
X138100000Y-63100000D02*
X138500000Y-62700000D01*
X142600000Y-82720000D02*
X143080000Y-83200000D01*
X138500000Y-62700000D02*
X143300000Y-62700000D01*
X143300000Y-62700000D02*
X148100000Y-67500000D01*
X159100000Y-73900000D02*
X159000000Y-74000000D01*
X153000000Y-84600000D02*
X154400000Y-83200000D01*
X151800000Y-71700000D02*
X156900000Y-71700000D01*
X154400000Y-83200000D02*
X154400000Y-79400000D01*
X159000000Y-77800000D02*
X157400000Y-79400000D01*
X148500000Y-84600000D02*
X153000000Y-84600000D01*
X157400000Y-79400000D02*
X154400000Y-79400000D01*
X138000000Y-63100000D02*
X138100000Y-63100000D01*
X148100000Y-67500000D02*
X148100000Y-68000000D01*
X156900000Y-71700000D02*
X159100000Y-73900000D01*
%TO.N,/GND_Digital*%
X154400000Y-76300000D02*
X148100000Y-70000000D01*
X154400000Y-76900000D02*
X152200000Y-76900000D01*
X152200000Y-76900000D02*
X147800000Y-81300000D01*
X147800000Y-95675000D02*
X143800000Y-99675000D01*
X148100000Y-70000000D02*
X143300000Y-65200000D01*
X143300000Y-65200000D02*
X129940000Y-65200000D01*
X147800000Y-81300000D02*
X147800000Y-95675000D01*
X154400000Y-76900000D02*
X154400000Y-76300000D01*
X129940000Y-65200000D02*
X127840000Y-63100000D01*
%TO.N,/18*%
X125380000Y-84180000D02*
X126000000Y-84800000D01*
X126000000Y-84800000D02*
X126300000Y-85100000D01*
X121300000Y-84180000D02*
X125380000Y-84180000D01*
%TO.N,Net-(Digital1-A)*%
X143800000Y-94080000D02*
X142600000Y-92880000D01*
X143800000Y-97135000D02*
X143800000Y-94080000D01*
%TO.N,/7*%
X129229000Y-61949000D02*
X119151000Y-61949000D01*
X119151000Y-61949000D02*
X117300000Y-63800000D01*
X130380000Y-63100000D02*
X129229000Y-61949000D01*
X117300000Y-63800000D02*
X117300000Y-81600000D01*
X114720000Y-84180000D02*
X106160000Y-84180000D01*
X117300000Y-81600000D02*
X114720000Y-84180000D01*
%TO.N,/19*%
X121460000Y-81800000D02*
X121300000Y-81640000D01*
%TO.N,/8*%
X112820000Y-86720000D02*
X106160000Y-86720000D01*
X116700000Y-81100000D02*
X116700000Y-81175735D01*
X118152000Y-61548000D02*
X116800000Y-62900000D01*
X131368000Y-61548000D02*
X118152000Y-61548000D01*
X132920000Y-63100000D02*
X131368000Y-61548000D01*
X113000000Y-86800000D02*
X112900000Y-86800000D01*
X116800000Y-62900000D02*
X116800000Y-81100000D01*
X112900000Y-86800000D02*
X112820000Y-86720000D01*
X116800000Y-81100000D02*
X116800000Y-81000000D01*
X116800000Y-81000000D02*
X116700000Y-81100000D01*
%TO.N,Net-(Pin22-A)*%
X130200000Y-93000000D02*
X130300000Y-92900000D01*
X130200000Y-97135000D02*
X130200000Y-93000000D01*
X130600000Y-93200000D02*
X130300000Y-92900000D01*
%TO.N,/SD4*%
X121440000Y-128960000D02*
X121440000Y-133900000D01*
%TO.N,/SD3*%
X131900000Y-128100000D02*
X131700000Y-128100000D01*
X138100000Y-128100000D02*
X131900000Y-128100000D01*
X139100000Y-129100000D02*
X138100000Y-128100000D01*
X140500000Y-138700000D02*
X139100000Y-137300000D01*
X126520000Y-131500000D02*
X126520000Y-133900000D01*
X153800000Y-138700000D02*
X140500000Y-138700000D01*
X139100000Y-137300000D02*
X139100000Y-129100000D01*
%TO.N,/SC2*%
X129100000Y-133940000D02*
X129060000Y-133900000D01*
%TO.N,/SC3*%
X137200000Y-130900000D02*
X136000000Y-129700000D01*
X124000000Y-131200000D02*
X124000000Y-133880000D01*
X136000000Y-129700000D02*
X125500000Y-129700000D01*
X124000000Y-133880000D02*
X123980000Y-133900000D01*
X138700000Y-141200000D02*
X137200000Y-139700000D01*
X125500000Y-129700000D02*
X124000000Y-131200000D01*
X153800000Y-141200000D02*
X138700000Y-141200000D01*
X137200000Y-139700000D02*
X137200000Y-130900000D01*
%TO.N,Net-(Pin23-A)*%
X137000000Y-97135000D02*
X137000000Y-93500000D01*
X137000000Y-93500000D02*
X136500000Y-93000000D01*
%TO.N,/1*%
X115500000Y-60700000D02*
X114800000Y-61400000D01*
X114800000Y-61400000D02*
X114800000Y-66700000D01*
X112540000Y-68940000D02*
X106160000Y-68940000D01*
X114800000Y-66700000D02*
X112550000Y-68950000D01*
X112550000Y-68950000D02*
X112540000Y-68940000D01*
%TO.N,/3*%
X114880000Y-74020000D02*
X106160000Y-74020000D01*
X135460000Y-63100000D02*
X133060000Y-60700000D01*
X133060000Y-60700000D02*
X117700000Y-60700000D01*
X117700000Y-60700000D02*
X116200000Y-62200000D01*
X116200000Y-72700000D02*
X114880000Y-74020000D01*
X116200000Y-62200000D02*
X116200000Y-72700000D01*
%TO.N,/GND_BUCK*%
X130800000Y-72700000D02*
X136149943Y-72700000D01*
X136149943Y-72700000D02*
X137500000Y-71349943D01*
X130400000Y-73100000D02*
X130400000Y-75800000D01*
X130200000Y-99675000D02*
X137000000Y-99675000D01*
X146400000Y-75700000D02*
X148800000Y-78100000D01*
X130400000Y-75800000D02*
X136700000Y-75800000D01*
X136700000Y-75800000D02*
X143100000Y-75800000D01*
X143100000Y-75800000D02*
X143200000Y-75700000D01*
X153725000Y-89200000D02*
X154275000Y-88650000D01*
X130800000Y-72700000D02*
X130400000Y-73100000D01*
X143200000Y-75700000D02*
X146400000Y-75700000D01*
X137500000Y-71349943D02*
X137500000Y-70500000D01*
%TO.N,/5V_Buck*%
X123900000Y-64900000D02*
X122860000Y-63860000D01*
X130400000Y-77800000D02*
X136700000Y-77800000D01*
X122860000Y-63860000D02*
X121300000Y-63860000D01*
X128500000Y-76800000D02*
X129500000Y-77800000D01*
X147200000Y-78200000D02*
X143200000Y-78200000D01*
X142800000Y-77800000D02*
X143200000Y-78200000D01*
X129880000Y-70500000D02*
X124500000Y-70500000D01*
X123900000Y-69900000D02*
X123900000Y-64900000D01*
X128500000Y-71880000D02*
X128500000Y-76800000D01*
X129500000Y-77800000D02*
X130400000Y-77800000D01*
X136700000Y-77800000D02*
X142800000Y-77800000D01*
X129880000Y-70500000D02*
X128500000Y-71880000D01*
X124500000Y-70500000D02*
X123900000Y-69900000D01*
X154225000Y-91200000D02*
X154275000Y-91150000D01*
%TO.N,/3.3V_T*%
X116080000Y-99420000D02*
X106160000Y-99420000D01*
X121300000Y-68940000D02*
X118300000Y-71940000D01*
X118300000Y-71940000D02*
X118300000Y-97200000D01*
X118300000Y-97200000D02*
X116080000Y-99420000D01*
%TO.N,/3.3V_A*%
X66100000Y-103700000D02*
X69000000Y-103700000D01*
X64800000Y-105000000D02*
X66100000Y-103700000D01*
X64800000Y-110300000D02*
X64800000Y-105000000D01*
X73200000Y-145500000D02*
X86300000Y-158600000D01*
X86300000Y-158600000D02*
X134100000Y-158600000D01*
X134100000Y-158600000D02*
X143900000Y-148800000D01*
X159400000Y-145400000D02*
X159400000Y-123200000D01*
X143900000Y-148800000D02*
X156000000Y-148800000D01*
X156000000Y-148800000D02*
X159400000Y-145400000D01*
%TO.N,/A0*%
X68940000Y-126375000D02*
X68940000Y-125340000D01*
X68940000Y-125340000D02*
X67700000Y-124100000D01*
X67700000Y-124100000D02*
X67700000Y-110700000D01*
X67700000Y-110700000D02*
X67300000Y-110300000D01*
%TD*%
M02*
