%TF.GenerationSoftware,KiCad,Pcbnew,9.0.7*%
%TF.CreationDate,2026-03-22T21:24:23+05:30*%
%TF.ProjectId,satellite,73617465-6c6c-4697-9465-2e6b69636164,rev?*%
%TF.SameCoordinates,Original*%
%TF.FileFunction,Soldermask,Bot*%
%TF.FilePolarity,Negative*%
%FSLAX46Y46*%
G04 Gerber Fmt 4.6, Leading zero omitted, Abs format (unit mm)*
G04 Created by KiCad (PCBNEW 9.0.7) date 2026-03-22 21:24:23*
%MOMM*%
%LPD*%
G01*
G04 APERTURE LIST*
G04 Aperture macros list*
%AMRoundRect*
0 Rectangle with rounded corners*
0 $1 Rounding radius*
0 $2 $3 $4 $5 $6 $7 $8 $9 X,Y pos of 4 corners*
0 Add a 4 corners polygon primitive as box body*
4,1,4,$2,$3,$4,$5,$6,$7,$8,$9,$2,$3,0*
0 Add four circle primitives for the rounded corners*
1,1,$1+$1,$2,$3*
1,1,$1+$1,$4,$5*
1,1,$1+$1,$6,$7*
1,1,$1+$1,$8,$9*
0 Add four rect primitives between the rounded corners*
20,1,$1+$1,$2,$3,$4,$5,0*
20,1,$1+$1,$4,$5,$6,$7,0*
20,1,$1+$1,$6,$7,$8,$9,0*
20,1,$1+$1,$8,$9,$2,$3,0*%
G04 Aperture macros list end*
%ADD10C,1.600000*%
%ADD11RoundRect,0.250000X0.750000X-0.600000X0.750000X0.600000X-0.750000X0.600000X-0.750000X-0.600000X0*%
%ADD12O,2.000000X1.700000*%
%ADD13RoundRect,0.250000X-0.750000X0.600000X-0.750000X-0.600000X0.750000X-0.600000X0.750000X0.600000X0*%
%ADD14R,1.700000X1.700000*%
%ADD15C,1.700000*%
%ADD16C,1.200000*%
%ADD17R,1.800000X1.800000*%
%ADD18C,1.800000*%
%ADD19RoundRect,0.250000X0.725000X-0.600000X0.725000X0.600000X-0.725000X0.600000X-0.725000X-0.600000X0*%
%ADD20O,1.950000X1.700000*%
%ADD21C,3.200000*%
%ADD22R,1.000000X1.000000*%
%ADD23C,1.000000*%
G04 APERTURE END LIST*
D10*
%TO.C,100nF*%
X67300000Y-110300000D03*
X64800000Y-110300000D03*
%TD*%
D11*
%TO.C,Digital_P.S.*%
X154400000Y-79400000D03*
D12*
X154400000Y-76900000D03*
%TD*%
D10*
%TO.C,100nF*%
X95900000Y-153250000D03*
X95900000Y-150750000D03*
%TD*%
D13*
%TO.C,Analog_POWER_SUPPLY*%
X68800000Y-142900000D03*
D12*
X68800000Y-145400000D03*
%TD*%
D14*
%TO.C,LIS3MDL*%
X77900000Y-105400000D03*
D15*
X80440000Y-105400000D03*
X82980000Y-105400000D03*
X85520000Y-105400000D03*
X88060000Y-105400000D03*
X90600000Y-105400000D03*
X93140000Y-105400000D03*
%TD*%
D10*
%TO.C,R3*%
X142600000Y-92880000D03*
X142600000Y-82720000D03*
%TD*%
%TO.C,R6*%
X136760000Y-117700000D03*
X139300000Y-117700000D03*
%TD*%
%TO.C,R5*%
X136500000Y-82840000D03*
X136500000Y-93000000D03*
%TD*%
%TO.C,R4*%
X130300000Y-82740000D03*
X130300000Y-92900000D03*
%TD*%
D16*
%TO.C,10uF*%
X136700000Y-75800000D03*
X136700000Y-77800000D03*
%TD*%
D17*
%TO.C,Analog*%
X85700000Y-132800000D03*
D18*
X85700000Y-135340000D03*
%TD*%
D10*
%TO.C,100nF_C6*%
X147925000Y-107750000D03*
X147925000Y-105250000D03*
%TD*%
D16*
%TO.C,10uF*%
X77500000Y-134000000D03*
X75500000Y-134000000D03*
%TD*%
D10*
%TO.C,100nF*%
X69900000Y-134200000D03*
X67400000Y-134200000D03*
%TD*%
D14*
%TO.C,MPU6500*%
X66400000Y-126375000D03*
D15*
X68940000Y-126375000D03*
X71480000Y-126375000D03*
X74020000Y-126375000D03*
X76560000Y-126375000D03*
X79100000Y-126375000D03*
X81640000Y-126375000D03*
X84180000Y-126375000D03*
X86720000Y-126375000D03*
X89260000Y-126375000D03*
%TD*%
D14*
%TO.C,PCA9548A_U1*%
X103660000Y-133900000D03*
D15*
X106200000Y-133900000D03*
X108740000Y-133900000D03*
X111280000Y-133900000D03*
X113820000Y-133900000D03*
X116360000Y-133900000D03*
X118900000Y-133900000D03*
X121440000Y-133900000D03*
X123980000Y-133900000D03*
X126520000Y-133900000D03*
X129060000Y-133900000D03*
X131600000Y-133900000D03*
%TD*%
D19*
%TO.C,T3_BATTERY*%
X154000000Y-109100000D03*
D20*
X154000000Y-106600000D03*
X154000000Y-104100000D03*
%TD*%
D10*
%TO.C,R7*%
X136760000Y-121100000D03*
X139300000Y-121100000D03*
%TD*%
D21*
%TO.C,H3*%
X66200000Y-64500000D03*
%TD*%
D19*
%TO.C,T2_ATMOSPHERE*%
X154000000Y-122800000D03*
D20*
X154000000Y-120300000D03*
X154000000Y-117800000D03*
%TD*%
D14*
%TO.C,LoRa1*%
X127840000Y-63100000D03*
D15*
X130380000Y-63100000D03*
X132920000Y-63100000D03*
X135460000Y-63100000D03*
X138000000Y-63100000D03*
%TD*%
D17*
%TO.C,Pin23*%
X137000000Y-99675000D03*
D18*
X137000000Y-97135000D03*
%TD*%
D21*
%TO.C,H1*%
X156100000Y-64500000D03*
%TD*%
D14*
%TO.C,GPS1*%
X137500000Y-70500000D03*
D15*
X134960000Y-70500000D03*
X132420000Y-70500000D03*
X129880000Y-70500000D03*
%TD*%
D14*
%TO.C,Teensy_R1*%
X121300000Y-63860000D03*
D15*
X121300000Y-66400000D03*
X121300000Y-68940000D03*
X121300000Y-71480000D03*
X121300000Y-74020000D03*
X121300000Y-76560000D03*
X121300000Y-79100000D03*
X121300000Y-81640000D03*
X121300000Y-84180000D03*
X121300000Y-86720000D03*
X121300000Y-89260000D03*
X121300000Y-91800000D03*
X121300000Y-94340000D03*
X121300000Y-96880000D03*
X121300000Y-99420000D03*
X121300000Y-101960000D03*
X121300000Y-104500000D03*
X121300000Y-107040000D03*
X121300000Y-109580000D03*
X121300000Y-112120000D03*
X121300000Y-114660000D03*
X121300000Y-117200000D03*
X121300000Y-119740000D03*
X121300000Y-122280000D03*
%TD*%
D14*
%TO.C,Teensy_L1*%
X106160000Y-63860000D03*
D15*
X106160000Y-66400000D03*
X106160000Y-68940000D03*
X106160000Y-71480000D03*
X106160000Y-74020000D03*
X106160000Y-76560000D03*
X106160000Y-79100000D03*
X106160000Y-81640000D03*
X106160000Y-84180000D03*
X106160000Y-86720000D03*
X106160000Y-89260000D03*
X106160000Y-91800000D03*
X106160000Y-94340000D03*
X106160000Y-96880000D03*
X106160000Y-99420000D03*
X106160000Y-101960000D03*
X106160000Y-104500000D03*
X106160000Y-107040000D03*
X106160000Y-109580000D03*
X106160000Y-112120000D03*
X106160000Y-114660000D03*
X106160000Y-117200000D03*
X106160000Y-119740000D03*
X106160000Y-122280000D03*
%TD*%
D10*
%TO.C,R2*%
X86900000Y-142300000D03*
X76740000Y-142300000D03*
%TD*%
D16*
%TO.C,10uF*%
X66900000Y-83100000D03*
X64900000Y-83100000D03*
%TD*%
D21*
%TO.C,H4*%
X66200000Y-154400000D03*
%TD*%
D10*
%TO.C,100nF*%
X143200000Y-75700000D03*
X143200000Y-78200000D03*
%TD*%
D14*
%TO.C,BME280*%
X79300000Y-82400000D03*
D15*
X81840000Y-82400000D03*
X84380000Y-82400000D03*
X86920000Y-82400000D03*
X89460000Y-82400000D03*
X92000000Y-82400000D03*
%TD*%
D10*
%TO.C,100nF*%
X67250000Y-90100000D03*
X64750000Y-90100000D03*
%TD*%
%TO.C,100nF_C4*%
X131400000Y-115700000D03*
X128900000Y-115700000D03*
%TD*%
D16*
%TO.C,10uF*%
X148100000Y-70000000D03*
X148100000Y-68000000D03*
%TD*%
%TO.C,10uF*%
X86800000Y-153000000D03*
X86800000Y-151000000D03*
%TD*%
D19*
%TO.C,Voltage/Current1*%
X153800000Y-141200000D03*
D20*
X153800000Y-138700000D03*
X153800000Y-136200000D03*
X153800000Y-133700000D03*
%TD*%
D10*
%TO.C,100nF*%
X143300000Y-65200000D03*
X143300000Y-62700000D03*
%TD*%
%TO.C,R1*%
X113880000Y-146600000D03*
X103720000Y-146600000D03*
%TD*%
%TO.C,100nF_C5*%
X147700000Y-121800000D03*
X147700000Y-119300000D03*
%TD*%
D14*
%TO.C,PCA9548A_D1*%
X103660000Y-151400000D03*
D15*
X106200000Y-151400000D03*
X108740000Y-151400000D03*
X111280000Y-151400000D03*
X113820000Y-151400000D03*
X116360000Y-151400000D03*
X118900000Y-151400000D03*
X121440000Y-151400000D03*
X123980000Y-151400000D03*
X126520000Y-151400000D03*
X129060000Y-151400000D03*
X131600000Y-151400000D03*
%TD*%
D21*
%TO.C,H2*%
X156100000Y-154400000D03*
%TD*%
D22*
%TO.C,T1_CUDE1*%
X131800000Y-110600000D03*
D23*
X130530000Y-110600000D03*
X129260000Y-110600000D03*
%TD*%
D11*
%TO.C,5V_P.S.*%
X154275000Y-91150000D03*
D12*
X154275000Y-88650000D03*
%TD*%
D17*
%TO.C,Digital1*%
X143800000Y-99675000D03*
D18*
X143800000Y-97135000D03*
%TD*%
D17*
%TO.C,Pin22*%
X130200000Y-99675000D03*
D18*
X130200000Y-97135000D03*
%TD*%
D16*
%TO.C,10uF*%
X130400000Y-75800000D03*
X130400000Y-77800000D03*
%TD*%
M02*
